#!OML:ASF H:\ManfredETheater\Project 1\Capture day 1\Session 1\subject.ASF
:FULLY-SPECIFIED
:DEGREES
161
root 15.0076 15.825 39.4966 -6.73158 33.1668 -10.9246
lowerback 13.8419 1.4476 3.5775
upperback 1.97249 2.79035 4.42241
thorax -5.7334 1.36281 2.1313
lowerneck -21.0301 -4.44761 -3.75983
upperneck 17.0796 -5.10269 0.813441
head 8.92553 -2.54806 0.190503
rclavicle 5.75979e-014 -3.37934e-014
rhumerus -42.5965 12.7441 -88.0432
rradius 130.655
rwrist -14.0836
rhand -17.3247 14.0235
rfingers 7.12502
rthumb 8.92202 -15.7679
lclavicle 5.75979e-014 -3.37934e-014
lhumerus -77.0041 -4.90094 95.8894
lradius 104.726
lwrist 17.645
lhand -18.8313 -12.5171
lfingers 7.12502
lthumb 7.46795 17.331
rfemur -13.3202 -10.6478 23.3508
rtibia 82.6613
rfoot 1.70569 -13.5208
rtoes -22.7459
lfemur -44.2653 -7.41279 -8.60457
ltibia 30.9542
lfoot -5.46172 1.23847
ltoes -12.4385
162
root 15.2447 15.7306 39.9393 -7.37419 32.876 -11.1263
lowerback 13.9797 1.34676 3.6972
upperback 2.00236 2.682 4.41463
thorax -5.77041 1.30674 2.07308
lowerneck -20.7303 -4.32893 -3.61885
upperneck 17.42 -5.01176 0.867803
head 8.98642 -2.49127 0.201555
rclavicle 2.53947e-014 -1.25234e-014
rhumerus -43.1973 12.3104 -88.5258
rradius 129.386
rwrist -13.5164
rhand -17.2686 13.8712
rfingers 7.12502
rthumb 8.97616 -15.9179
lclavicle 2.53947e-014 -1.25234e-014
lhumerus -77.2345 -4.64387 95.6185
lradius 105.419
lwrist 17.3779
lhand -18.8312 -12.5031
lfingers 7.12502
lthumb 7.46807 17.3451
rfemur -13.9458 -10.9178 23.2463
rtibia 84.6242
rfoot 0.822492 -14.3696
rtoes -22.2849
lfemur -44.1259 -6.3942 -8.92601
ltibia 32.2785
lfoot -4.45346 -0.0999201
ltoes -14.3072
163
root 15.4738 15.6289 40.3717 -8.02516 32.6958 -11.1822
lowerback 14.3304 1.19986 3.71407
upperback 2.03126 2.50857 4.36108
thorax -5.92789 1.2188 2.03288
lowerneck -20.4186 -4.19029 -3.45063
upperneck 17.7033 -4.89411 0.893828
head 9.02323 -2.42316 0.203036
rclavicle -1.16289e-014 -7.15625e-015
rhumerus -43.8334 11.7664 -89.0359
rradius 127.944
rwrist -12.9918
rhand -17.2267 13.7381
rfingers 7.12502
rthumb 9.01662 -16.0492
lclavicle -1.16289e-014 -7.15625e-015
lhumerus -77.2781 -4.47582 95.4221
lradius 106.005
lwrist 17.0869
lhand -18.8874 -12.4303
lfingers 7.12502
lthumb 7.41387 17.4198
rfemur -14.7052 -11.3552 22.991
rtibia 86.6028
rfoot -0.212058 -14.9544
rtoes -21.9761
lfemur -44.0972 -5.40792 -9.44625
ltibia 34.3968
lfoot -3.18704 -1.66383
ltoes -15.3715
164
root 15.693 15.523 40.7937 -8.60231 32.6519 -10.953
lowerback 14.8738 1.02242 3.4766
upperback 2.06558 2.26122 4.23927
thorax -6.19197 1.09832 2.07685
lowerneck -20.0749 -4.03088 -3.27271
upperneck 17.9177 -4.74578 0.902085
head 9.02908 -2.34209 0.202211
rclavicle 2.88238e-014 -4.83047e-014
rhumerus -44.4866 11.1278 -89.5629
rradius 126.34
rwrist -12.5528
rhand -17.2091 13.6169
rfingers 7.12502
rthumb 9.03358 -16.1696
lclavicle 2.88238e-014 -4.83047e-014
lhumerus -77.1051 -4.37799 95.3071
lradius 106.456
lwrist 16.8043
lhand -18.9733 -12.3207
lfingers 7.12502
lthumb 7.33093 17.5323
rfemur -15.6126 -11.9513 22.4591
rtibia 88.5635
rfoot -1.39792 -15.2913
rtoes -21.7504
lfemur -44.1945 -4.64402 -10.1809
ltibia 37.2314
lfoot -1.72936 -3.16601
ltoes -15.4183
165
root 15.9011 15.4115 41.2063 -9.00589 32.7782 -10.3256
lowerback 15.5571 0.828199 2.85847
upperback 2.1079 1.92509 4.03151
thorax -6.5307 0.942551 2.26537
lowerneck -19.7143 -3.84988 -3.09535
upperneck 18.065 -4.5635 0.900636
head 9.00778 -2.2463 0.203385
rclavicle 1.65488e-014 1.5704e-014
rhumerus -45.1354 10.4019 -90.0952
rradius 124.574
rwrist -12.2075
rhand -17.2206 13.5031
rfingers 7.12502
rthumb 9.02248 -16.284
lclavicle 1.65488e-014 1.5704e-014
lhumerus -76.6557 -4.32414 95.2717
lradius 106.716
lwrist 16.5678
lhand -19.0454 -12.1959
lfingers 7.12502
lthumb 7.26128 17.6595
rfemur -16.7184 -12.7178 21.5528
rtibia 90.4924
rfoot -2.73135 -15.4027
rtoes -21.6656
lfemur -44.4219 -4.21383 -11.1795
ltibia 40.6542
lfoot -0.486692 -4.42311
ltoes -14.2902
166
root 16.1003 15.2955 41.6115 -9.20528 33.0144 -9.30767
lowerback 16.3041 0.646803 1.88164
upperback 2.16979 1.5268 3.73802
thorax -6.88254 0.766679 2.58617
lowerneck -19.3617 -3.65499 -2.9351
upperneck 18.163 -4.35495 0.901103
head 8.97094 -2.13911 0.211298
rclavicle -2.25496e-014 1.90833e-014
rhumerus -45.7674 9.58651 -90.6164
rradius 122.642
rwrist -11.9426
rhand -17.2729 13.4041
rfingers 7.12502
rthumb 8.97204 -16.3851
lclavicle -2.25496e-014 1.90833e-014
lhumerus -75.882 -4.31861 95.3098
lradius 106.736
lwrist 16.4012
lhand -19.1055 -12.0703
lfingers 7.12502
lthumb 7.20329 17.7871
rfemur -18.047 -13.5768 20.3125
rtibia 92.345
rfoot -4.20758 -15.3193
rtoes -21.7375
lfemur -44.7068 -4.04994 -12.4291
ltibia 44.4824
lfoot 0.229091 -5.28069
ltoes -12.2468
167
root 16.2921 15.1742 42.0093 -9.20435 33.3154 -8.04585
lowerback 17.029 0.483334 0.707339
upperback 2.24052 1.09207 3.38636
thorax -7.20272 0.581003 2.97444
lowerneck -19.0635 -3.45504 -2.81933
upperneck 18.2584 -4.12818 0.923327
head 8.94421 -2.02362 0.234786
rclavicle 5.03174e-015 -1.76918e-014
rhumerus -46.3686 8.66708 -91.0956
rradius 120.532
rwrist -11.714
rhand -17.3785 13.2952
rfingers 7.12502
rthumb 8.87007 -16.4983
lclavicle 5.03174e-015 -1.76918e-014
lhumerus -74.7399 -4.38945 95.3851
lradius 106.431
lwrist 16.2723
lhand -19.0356 -12.0666
lfingers 7.12502
lthumb 7.27075 17.7885
rfemur -19.6824 -14.4752 18.9352
rtibia 94.0664
rfoot -5.79019 -15.0966
rtoes -21.9622
lfemur -45.0539 -4.03797 -13.8229
ltibia 48.5232
lfoot 0.213412 -5.76141
ltoes -9.61118
168
root 16.4793 15.0492 42.4004 -9.0071 33.6343 -6.68963
lowerback 17.6151 0.333083 -0.500262
upperback 2.31165 0.644011 3.00746
thorax -7.43198 0.392291 3.36339
lowerneck -18.8429 -3.25997 -2.74619
upperneck 18.3854 -3.89467 0.953556
head 8.94324 -1.90648 0.266864
rclavicle 7.38982e-014 -1.51076e-014
rhumerus -46.922 7.65132 -91.4973
rradius 118.225
rwrist -11.4865
rhand -17.5651 13.1699
rfingers 7.12502
rthumb 8.69003 -16.6313
lclavicle 7.38982e-014 -1.51076e-014
lhumerus -73.1882 -4.56442 95.4624
lradius 105.725
lwrist 16.1809
lhand -18.8345 -12.2378
lfingers 7.12502
lthumb 7.46492 17.6105
rfemur -21.704 -15.3647 17.6306
rtibia 95.5817
rfoot -7.41805 -14.7892
rtoes -22.3535
lfemur -45.4645 -4.09686 -15.2337
ltibia 52.5878
lfoot -0.562 -5.91604
ltoes -7.12916
169
root 16.6665 14.9253 42.7851 -8.67869 33.9132 -5.39314
lowerback 18.019 0.187447 -1.54686
upperback 2.37167 0.217778 2.62746
thorax -7.5613 0.210734 3.65767
lowerneck -18.7277 -3.08053 -2.73626
upperneck 18.6036 -3.66469 0.996739
head 8.99415 -1.79322 0.310805
rclavicle -4.95378e-014 7.05686e-015
rhumerus -47.4325 6.54318 -91.7792
rradius 115.715
rwrist -11.2058
rhand -17.8433 12.9976
rfingers 7.12502
rthumb 8.42155 -16.8145
lclavicle -4.95378e-014 7.05686e-015
lhumerus -71.2368 -4.87371 95.5193
lradius 104.605
lwrist 16.1176
lhand -18.5676 -12.5229
lfingers 7.12502
lthumb 7.72249 17.3161
rfemur -24.0943 -16.1843 16.59
rtibia 96.7812
rfoot -8.99438 -14.4532
rtoes -22.9307
lfemur -45.8619 -4.15474 -16.5342
ltibia 56.5007
lfoot -2.09567 -5.79535
ltoes -4.93963
170
root 16.8563 14.8071 43.1639 -8.28627 34.1191 -4.29993
lowerback 18.196 0.0392277 -2.28729
upperback 2.41207 -0.154941 2.27737
thorax -7.58359 0.045998 3.79515
lowerneck -18.7053 -2.92502 -2.7735
upperneck 18.9302 -3.44896 1.02662
head 9.10008 -1.69089 0.354307
rclavicle -5.40912e-015 1.14488e-014
rhumerus -47.9049 5.36561 -91.9082
rradius 113.014
rwrist -10.8692
rhand -18.2187 12.7885
rfingers 7.12502
rthumb 8.05926 -17.0378
lclavicle -5.40912e-015 1.14488e-014
lhumerus -68.9252 -5.3216 95.5347
lradius 103.108
lwrist 16.0192
lhand -18.4974 -12.7806
lfingers 7.12502
lthumb 7.79023 17.0558
rfemur -26.821 -16.8849 15.9875
rtibia 97.5649
rfoot -10.4176 -14.1559
rtoes -23.6793
lfemur -46.1856 -4.17005 -17.6043
ltibia 60.1238
lfoot -4.22008 -5.46876
ltoes -3.78808
171
root 17.05 14.7033 43.5372 -7.89603 34.2406 -3.48069
lowerback 18.1577 -0.1137 -2.65893
upperback 2.4306 -0.455318 1.97569
thorax -7.51662 -0.0952031 3.75263
lowerneck -18.7584 -2.7986 -2.84655
upperneck 19.3757 -3.2536 1.02453
head 9.26174 -1.60403 0.388932
rclavicle 4.32543e-014 -3.32716e-014
rhumerus -48.3419 4.1644 -91.8637
rradius 110.176
rwrist -10.5323
rhand -18.6693 12.5417
rfingers 7.12502
rthumb 7.62437 -17.3009
lclavicle 4.32543e-014 -3.32716e-014
lhumerus -66.3349 -5.88063 95.4954
lradius 101.327
lwrist 15.8095
lhand -18.6508 -12.9777
lfingers 7.12502
lthumb 7.64222 16.8642
rfemur -29.761 -17.4296 15.8859
rtibia 97.8708
rfoot -11.6567 -13.9566
rtoes -24.5757
lfemur -46.4475 -4.14748 -18.3713
ltibia 63.524
lfoot -6.6572 -5.02556
ltoes -3.31657
